<svg width="20" height="19" viewBox="0 0 20 19" fill="none" xmlns="http://www.w3.org/2000/svg">
<path d="M0.865551 9.08378C2.04925 10.0489 3.22846 11.014 4.41216 11.9792C4.13761 13.1275 3.86306 14.2803 3.59302 15.4286C3.53901 15.652 3.4895 15.8709 3.43549 16.0944C3.24646 16.8897 3.503 17.7029 4.16011 18.2078C4.77672 18.6814 5.72638 18.8021 6.4105 18.3642C7.6077 17.6001 8.80491 16.8405 9.99761 16.0765C11.0013 16.7154 12.005 17.3588 13.0086 17.9978C13.2022 18.1184 13.3957 18.2435 13.5847 18.3642C13.8638 18.5429 14.2778 18.6367 14.6064 18.6367C15.0565 18.6367 15.4796 18.4759 15.8351 18.2033C16.4877 17.7029 16.7488 16.8897 16.5597 16.0899C16.2357 14.7182 15.9071 13.3464 15.5831 11.9747C16.5822 11.1615 17.5814 10.3483 18.5761 9.5306C18.7606 9.37868 18.9451 9.23123 19.1297 9.07931C19.2332 8.94527 19.3412 8.80675 19.4447 8.67271C19.5122 8.51185 19.5798 8.351 19.6473 8.19461C19.7688 7.75673 19.7193 7.29651 19.5437 6.88544C19.4042 6.55479 19.2062 6.30011 18.9181 6.08117C18.5401 5.79073 18.171 5.69243 17.6894 5.64775C16.2807 5.52264 14.8719 5.39307 13.4632 5.26796C13.0401 4.21793 12.6216 3.16344 12.1985 2.11342C12.113 1.89895 12.0275 1.68895 11.9419 1.47447C11.9374 1.4566 11.9284 1.4432 11.9194 1.42532C11.8699 1.26447 11.8069 1.11702 11.7394 0.99191C11.6404 0.82212 11.5009 0.656797 11.3388 0.513815C11.3343 0.509347 11.3298 0.509347 11.3298 0.504879C11.3163 0.491474 11.3028 0.482538 11.2893 0.469133C11.2713 0.455729 11.2533 0.437856 11.2353 0.424452C11.2308 0.419983 11.2218 0.415515 11.2173 0.411047C11.2038 0.397643 11.1858 0.388706 11.1723 0.375302C10.9743 0.23232 10.7537 0.120616 10.5332 0.0669974C10.4297 0.0446565 10.3262 0.0267838 10.2227 0.0178475C10.0246 -0.00896159 9.82658 -0.00449341 9.64205 0.0267838C9.40801 0.0625293 9.17847 0.138488 8.97144 0.268065C8.94893 0.285938 8.92193 0.303811 8.89943 0.321684C8.77791 0.397643 8.66539 0.482538 8.56187 0.57637C8.43585 0.697011 8.32783 0.835524 8.24231 0.99191C8.1523 1.15723 8.07579 1.34936 8.02178 1.54596C7.51769 2.79705 7.0226 4.03921 6.52302 5.28136C5.35282 5.3886 4.17812 5.49137 3.00792 5.5986C2.76938 5.62094 2.53534 5.63882 2.2968 5.66116C1.94124 5.69243 1.58567 5.75499 1.27512 5.93372C0.892556 6.15712 0.618008 6.49671 0.446979 6.89437C0.302954 7.23842 0.257947 7.56907 0.307456 7.93546C0.361465 8.33313 0.532494 8.81569 0.865551 9.08378ZM12.6081 9.21783C12.5496 9.26698 12.491 9.31166 12.4325 9.36081C12.248 9.51273 12.0635 9.66018 11.8789 9.81209C11.3208 10.2678 11.2038 11.1168 11.3568 11.7692C11.3974 11.93 11.4334 12.0909 11.4739 12.2517C11.3163 12.1534 11.1588 12.0507 11.0058 11.9568C10.4207 11.586 9.54304 11.586 8.96244 11.9568C8.80491 12.0551 8.65188 12.1534 8.49886 12.2517C8.53486 12.0909 8.57537 11.93 8.61138 11.7692C8.7644 11.1168 8.64738 10.2678 8.08929 9.81209C7.84625 9.61549 7.6032 9.41443 7.36016 9.21783C7.54919 9.19995 7.73373 9.18655 7.92276 9.16868C8.38634 9.12846 8.7734 9.02569 9.15147 8.73526C9.52503 8.4493 9.70056 8.12759 9.87609 7.68971C9.9121 7.60035 9.9481 7.51098 9.98411 7.42162C10.0201 7.51098 10.0561 7.60035 10.0921 7.69418C10.1596 7.85503 10.2272 8.01589 10.2947 8.17227C10.4207 8.40462 10.5962 8.59675 10.8168 8.73526C11.1948 9.02569 11.5639 9.12399 12.0455 9.16868C12.2345 9.18208 12.4235 9.19995 12.6081 9.21783Z" fill="#9EAAF8"/>
</svg>
