<svg width="38" height="21" viewBox="0 0 38 21" fill="none" xmlns="http://www.w3.org/2000/svg">
<path d="M37.9999 11.1074C37.9909 10.6517 37.8919 10.2406 37.6758 9.83397C37.2888 9.12353 36.6092 8.69459 35.853 8.54267C35.7045 8.50692 35.547 8.48458 35.3849 8.48458C35.3444 8.48458 35.2994 8.48458 35.2589 8.48458C34.0842 8.48458 32.9185 8.48458 31.7438 8.48458C30.0515 8.48458 28.3592 8.48458 26.667 8.48458C26.667 8.46671 26.667 8.45331 26.667 8.43543C26.667 7.12179 26.667 5.81261 26.667 4.49897C26.667 3.57406 26.7975 2.47935 26.2754 1.66614C25.8658 1.02273 25.2447 0.638463 24.5246 0.49995C24.3761 0.464204 24.2185 0.441864 24.061 0.441864C24.0205 0.441864 23.9755 0.441864 23.935 0.441864C22.1977 0.441864 20.4649 0.441864 18.7276 0.441864C17.5529 0.441864 16.3827 0.441864 15.208 0.441864C14.866 0.441864 14.5284 0.441864 14.1863 0.441864C14.1098 0.441864 14.0333 0.441864 13.9568 0.441864C13.2322 0.459737 12.5571 0.723359 12.0485 1.24167C11.5264 1.77785 11.3239 2.48829 11.3239 3.2166C11.3239 3.45788 11.3239 3.6947 11.3239 3.93598C11.3239 4.26216 11.3239 4.58386 11.3239 4.91004C10.6397 4.91004 9.95562 4.91004 9.276 4.91004C7.31367 4.91004 5.35584 4.91004 3.3935 4.91004C3.17297 4.91004 2.94793 4.91004 2.72739 4.91004C1.74622 4.91004 0.801063 5.37473 0.328483 6.25943C-0.0495812 6.9654 0.00442793 7.70712 0.00442793 8.47118C0.00442793 10.4327 0.00442793 12.3942 0.00442793 14.3558C0.00442793 15.875 -0.0045736 17.3941 0.00442793 18.9133C0.00442793 18.9401 0.00442793 18.9625 0.00442793 18.9893C0.00442793 20.075 0.931585 20.9999 2.02977 20.9999C3.30349 20.9999 4.58171 20.9999 5.85542 20.9999C7.88977 20.9999 9.91961 20.9999 11.954 20.9999C12.422 20.9999 12.8856 20.9999 13.3537 20.9999C13.3942 20.9999 13.4392 20.9999 13.4797 20.9955C14.7039 20.9955 15.9371 20.9955 17.1613 20.9955C19.1867 20.9955 21.2165 20.9955 23.2419 20.9955C23.71 20.9955 24.178 20.9955 24.6416 20.9955H24.6461H24.6506C25.9243 20.9955 27.2026 20.9955 28.4763 20.9955C30.5106 20.9955 32.5405 20.9955 34.5748 20.9955C35.0429 20.9955 35.5065 20.9955 35.9745 20.9955C37.0682 20.9955 37.9999 20.075 37.9999 18.9848C37.9999 17.9705 37.9999 16.9518 37.9999 15.9375C37.9999 14.4898 37.9999 13.0421 37.9999 11.5944C37.9999 11.4336 38.0044 11.2727 37.9999 11.1074ZM24.088 4.46322C24.097 4.46322 24.1105 4.46322 24.1195 4.46769C24.1105 4.46769 24.1015 4.46769 24.088 4.46322ZM4.05062 16.9741C4.05062 16.3441 4.05062 15.7141 4.05062 15.0885C4.05062 13.0332 4.05062 10.9823 4.05062 8.92693C4.77074 8.92693 5.49536 8.92693 6.21548 8.92693C7.92127 8.92693 9.62256 8.92693 11.3239 8.92693C11.3239 9.61503 11.3239 10.3076 11.3239 10.9957C11.3239 12.0457 11.3239 13.0957 11.3239 14.1458C11.3239 15.0886 11.3194 16.0313 11.3194 16.9741C10.7208 16.9741 10.1221 16.9741 9.52355 16.9741C7.69624 16.9741 5.87343 16.9741 4.05062 16.9741ZM15.3835 16.9786C15.3835 15.8481 15.3835 14.7177 15.3835 13.5828C15.3835 12.0413 15.3835 10.4997 15.3835 8.95821C15.3835 7.63563 15.3835 6.30858 15.3835 4.986C15.3835 4.81174 15.3835 4.63302 15.3835 4.45876C16.0317 4.45876 16.6843 4.45876 17.3369 4.45876C19.0967 4.45876 20.8655 4.45876 22.6253 4.45876C22.6253 4.50791 22.6253 4.55706 22.6253 4.60621C22.6253 5.8707 22.6253 7.13519 22.6253 8.39969C22.6253 9.09672 22.6253 9.79823 22.6253 10.4953C22.6253 11.447 22.6253 12.4032 22.6253 13.3549C22.6253 14.5613 22.6253 15.7722 22.6253 16.9786C22.0312 16.9786 21.4326 16.9786 20.8385 16.9786C19.0202 16.9786 17.2019 16.9786 15.3835 16.9786ZM26.676 16.9831C26.676 16.7016 26.676 16.4156 26.676 16.1341C26.676 14.9277 26.676 13.7213 26.676 12.5149C27.2161 12.5149 27.7516 12.5149 28.2917 12.5149C30.1821 12.5149 32.0724 12.5149 33.9627 12.5149C33.9582 12.917 33.9492 13.3236 33.9492 13.7213C33.9492 14.8071 33.9492 15.8973 33.9492 16.9831C33.3506 16.9831 32.7475 16.9831 32.1489 16.9831C30.3216 16.9831 28.4988 16.9831 26.676 16.9831Z" fill="#9EAAF8"/>
</svg>
